<?xml version="1.0" encoding="utf-8"?>
<!-- Generator: Adobe Illustrator 18.1.1, SVG Export Plug-In . SVG Version: 6.00 Build 0)  -->
<svg version="1.1" id="Ebene_1" xmlns="http://www.w3.org/2000/svg" xmlns:xlink="http://www.w3.org/1999/xlink" x="0px" y="0px"
	 viewBox="0 0 52 100" enable-background="new 0 0 52 100" xml:space="preserve">
<g id="Hilfe">
	<path fill="#242424" d="M31.9,87.1c0,3.7-3,6.7-6.7,6.7c-3.7,0-6.7-3-6.7-6.7c0-3.7,3-6.7,6.7-6.7C28.9,80.4,31.9,83.4,31.9,87.1z
		 M25.2,0C14.4,0,4.7,6.4,0.5,16.4c-1.4,3.4,0.2,7.3,3.6,8.8c3.4,1.4,7.3-0.2,8.8-3.6c2.1-5,6.9-8.2,12.3-8.2
		c7.4,0,13.4,6,13.4,13.4c0,5.6-3.3,8.9-8.7,13.8C24.8,45.2,18.5,51,18.5,60.3V67c0,3.7,3,6.7,6.7,6.7s6.7-3,6.7-6.7v-6.7
		c0-3.2,2.5-5.7,7-9.8c5.5-5,13.1-11.9,13.1-23.7C52,12,40,0,25.2,0z"/>
</g>
<g id="PfeilHoch">
</g>
</svg>
