<?xml version="1.0" encoding="utf-8"?>
<!-- Generator: Adobe Illustrator 18.1.1, SVG Export Plug-In . SVG Version: 6.00 Build 0)  -->
<svg version="1.1" id="Ebene_1" xmlns="http://www.w3.org/2000/svg" xmlns:xlink="http://www.w3.org/1999/xlink" x="0px" y="0px"
	 viewBox="0 0 67 100" enable-background="new 0 0 67 100" xml:space="preserve">
<g id="PfeilHoch">
	<path fill="#242424" d="M65.6,30.8c-1.3,1.8-3.3,2.7-5.4,2.7c-1.4,0-2.8-0.4-4-1.3L40.2,20.1v67c0,3.7-3,6.7-6.7,6.7
		s-6.7-3-6.7-6.7v-67L10.7,32.1c-3,2.2-7.2,1.6-9.4-1.3c-2.2-3-1.6-7.2,1.3-9.4L29.5,1.3c0.3-0.2,0.6-0.3,0.9-0.5
		c0.3-0.1,0.5-0.3,0.8-0.4C31.9,0.2,32.7,0,33.4,0c0,0,0,0,0,0c0,0,0,0,0,0c0.8,0,1.6,0.2,2.3,0.5c0.3,0.1,0.5,0.3,0.8,0.4
		c0.3,0.2,0.6,0.3,0.9,0.5l26.8,20.1C67.2,23.6,67.8,27.8,65.6,30.8z"/>
</g>
</svg>
