<?xml version="1.0" encoding="utf-8"?>
<!-- Generator: Adobe Illustrator 18.1.1, SVG Export Plug-In . SVG Version: 6.00 Build 0)  -->
<svg version="1.1" id="Ebene_1" xmlns="http://www.w3.org/2000/svg" xmlns:xlink="http://www.w3.org/1999/xlink" x="0px" y="0px"
	 viewBox="0 0 67 100" enable-background="new 0 0 67 100" xml:space="preserve">
<g id="PfeilRunter">
	<path fill="#242424" d="M64.3,72.3L37.5,92.4c-0.3,0.2-0.6,0.3-0.9,0.5c-0.3,0.1-0.5,0.3-0.8,0.4c-0.8,0.3-1.5,0.5-2.3,0.5
		c0,0,0,0,0,0c0,0,0,0,0,0c-0.8,0-1.6-0.2-2.3-0.5c-0.3-0.1-0.5-0.3-0.8-0.4c-0.3-0.2-0.6-0.3-0.9-0.5L2.7,72.3
		c-3-2.2-3.6-6.4-1.3-9.4c1.3-1.8,3.3-2.7,5.4-2.7c1.4,0,2.8,0.4,4,1.3l16.1,12.1v-67c0-3.7,3-6.7,6.7-6.7c3.7,0,6.7,3,6.7,6.7v67
		l16.1-12.1c3-2.2,7.2-1.6,9.4,1.3S67.2,70.1,64.3,72.3z"/>
</g>
<g id="PfeilHoch">
</g>
</svg>
